<?xml version="1.0" standalone="no"?>
<!DOCTYPE svg PUBLIC "-//W3C//DTD SVG 20010904//EN"
 "http://www.w3.org/TR/2001/REC-SVG-20010904/DTD/svg10.dtd">
<svg version="1.0" xmlns="http://www.w3.org/2000/svg"
 width="1024.000000pt" height="1024.000000pt" viewBox="0 0 1024.000000 1024.000000"
 preserveAspectRatio="xMidYMid meet">

<g transform="translate(0.000000,1024.000000) scale(0.100000,-0.100000)"
fill="#000000" stroke="none">
<path d="M4800 8261 c-42 -22 -80 -83 -80 -130 0 -26 -14 -52 -58 -110 -85
-110 -168 -238 -252 -386 -40 -71 -84 -149 -97 -172 -13 -24 -19 -43 -13 -43
7 0 9 -9 6 -22 -3 -13 -3 -17 0 -10 8 17 24 15 40 -5 11 -15 13 -15 14 -3 0
11 3 12 8 3 4 -6 19 -14 32 -16 14 -3 34 -8 45 -12 11 -4 5 2 -13 14 l-33 21
42 78 c294 544 289 536 355 526 84 -12 155 34 184 122 l17 49 44 -3 c74 -5
208 -41 273 -72 124 -59 293 -232 430 -439 79 -120 89 -139 82 -156 -3 -8 -38
-31 -78 -51 -180 -90 -418 -244 -548 -354 -64 -54 -87 -70 -75 -50 6 10 1 12
-19 8 -19 -4 -24 -2 -16 7 12 15 -14 39 -96 88 -85 51 -340 149 -368 142 -15
-5 -17 -4 -8 3 11 7 6 12 -17 20 -23 8 -30 8 -25 0 4 -7 3 -8 -5 -4 -14 9 -53
-2 -46 -13 2 -5 -7 -6 -20 -3 -29 5 -23 22 8 22 12 0 28 4 35 9 10 6 7 10 -11
15 -14 3 -33 9 -43 13 -12 4 -15 3 -10 -6 8 -12 -22 -43 -34 -36 -4 2 -7 -15
-9 -38 -2 -43 18 -127 31 -127 4 0 8 -7 8 -15 0 -9 10 -15 28 -16 l27 -1 -30
-8 c-16 -4 -22 -8 -12 -9 10 0 16 -5 13 -9 -7 -11 172 -65 186 -56 6 4 8 3 5
-3 -3 -5 19 -18 51 -27 54 -17 208 -89 225 -105 4 -4 -8 -22 -27 -40 l-33 -32
-124 59 c-181 87 -338 144 -463 168 l-37 6 29 -49 c16 -27 37 -72 46 -101 15
-43 22 -52 41 -52 88 0 391 -73 420 -101 5 -6 -30 -47 -95 -112 -128 -125
-293 -305 -415 -452 -82 -99 -116 -143 -244 -318 -20 -27 -35 -53 -33 -58 1
-5 -2 -9 -8 -9 -5 0 -19 -18 -30 -39 -11 -22 -25 -43 -32 -47 -8 -5 -7 0 2 12
14 18 14 18 -2 5 -10 -7 -15 -17 -13 -22 3 -4 -5 -15 -18 -24 -25 -16 -144
-186 -168 -237 -7 -16 -15 -28 -19 -28 -17 0 -35 248 -35 485 l0 250 33 90
c17 49 32 90 32 91 0 1 -31 20 -68 42 -75 45 -130 96 -158 148 -10 19 -22 34
-25 34 -4 0 -12 -35 -18 -77 -24 -174 -33 -369 -28 -599 5 -284 19 -371 78
-486 21 -43 35 -78 30 -78 -5 0 -12 6 -14 13 -3 6 -6 1 -6 -12 -1 -19 -4 -21
-16 -11 -12 10 -15 7 -20 -13 -5 -19 -12 -23 -30 -20 -12 3 -26 0 -29 -6 -9
-14 -43 -14 -52 1 -5 7 -3 8 6 3 9 -6 11 -4 5 4 -5 9 -10 10 -18 2 -15 -15
-53 33 -140 178 -92 154 -157 283 -198 393 -31 85 -99 349 -99 387 0 12 -5 20
-11 19 -6 -2 -14 3 -16 10 -3 6 0 12 6 12 6 0 11 6 11 14 0 15 -34 31 -48 22
-4 -2 -8 3 -9 12 0 9 -7 46 -14 82 -17 86 -13 294 7 331 17 33 18 81 3 96 -8
8 -8 13 0 17 6 4 11 2 11 -3 0 -6 5 -11 10 -11 7 0 7 7 -1 21 -10 19 -9 20 13
15 l23 -6 -22 11 c-29 15 -30 36 -2 35 12 -1 24 6 26 14 4 12 3 12 -5 2 -7
-11 -11 -10 -16 4 -4 10 -3 20 1 23 4 3 23 26 42 50 27 34 31 45 20 52 -8 5
-22 6 -31 3 -22 -6 -22 -4 -5 30 8 14 17 23 20 19 4 -3 7 1 7 10 0 10 5 17 11
17 5 0 8 4 4 9 -3 5 -1 12 5 16 5 3 11 1 11 -4 1 -6 3 -15 4 -21 1 -5 3 -15 4
-21 0 -6 10 -8 24 -3 29 9 29 8 21 28 -4 10 -13 14 -24 11 -11 -4 -20 1 -24
12 -5 13 4 28 32 55 22 20 37 39 34 42 -3 3 -1 6 4 6 6 0 19 7 30 16 18 14 18
14 -6 3 -53 -25 -160 -112 -236 -191 -119 -124 -182 -238 -221 -399 -22 -93
-25 -391 -4 -484 56 -253 210 -556 461 -906 92 -128 206 -274 248 -316 18 -17
32 -36 32 -42 0 -24 -68 -179 -156 -354 -99 -198 -125 -256 -178 -402 -32 -87
-60 -199 -33 -132 6 15 15 27 20 27 4 0 6 4 2 10 -6 10 78 189 104 217 9 10
29 38 45 63 56 86 190 255 265 332 70 74 75 77 93 61 10 -9 18 -22 18 -30 0
-7 -23 -64 -51 -126 -136 -300 -204 -480 -264 -702 -33 -123 -59 -203 -70
-213 -4 -4 -4 8 0 26 l7 32 -46 0 c-39 0 -46 3 -46 20 0 13 -7 20 -20 20 -13
0 -20 -7 -20 -20 0 -29 -38 -27 -42 3 -2 12 -4 -26 -3 -85 0 -66 -4 -108 -10
-108 -5 0 -3 -5 5 -10 12 -8 8 -10 -15 -11 -16 -1 -35 -2 -42 -2 -14 1 -23
-31 -19 -75 1 -18 -1 -35 -4 -37 -11 -7 -203 34 -264 56 -220 80 -349 246
-351 454 0 79 21 205 35 205 3 0 27 14 52 30 71 47 95 118 66 197 -11 30 -10
39 10 76 30 55 149 223 229 320 55 66 60 77 42 77 -12 0 -37 -16 -55 -36 -51
-54 -181 -230 -225 -306 -22 -38 -44 -68 -49 -68 -5 0 -30 5 -57 11 -36 8 -59
8 -93 -1 -56 -15 -120 -76 -121 -116 -4 -95 14 -133 75 -169 l44 -26 -29 -74
c-92 -236 -13 -410 245 -535 106 -52 249 -94 357 -106 92 -10 95 -12 103 -93
17 -167 94 -389 179 -517 61 -90 143 -159 234 -195 52 -21 74 -23 223 -23 121
0 184 5 235 17 39 9 83 20 100 23 16 3 42 12 58 20 15 8 32 12 37 9 6 -3 10
-1 10 4 0 6 -11 11 -24 11 -13 0 -27 6 -30 13 -5 10 -7 10 -12 0 -7 -16 -54
-17 -54 -2 0 5 5 7 11 4 5 -4 18 0 27 8 9 8 31 19 47 24 l30 10 3 123 c1 70 7
129 14 137 6 7 21 13 34 13 13 0 24 4 24 9 0 5 9 7 20 4 25 -7 38 22 21 50
-11 16 -10 24 8 48 12 15 21 38 21 49 0 12 4 19 8 16 4 -2 8 4 8 15 0 19 -1
18 -18 -3 -15 -19 -17 -19 -11 -4 5 17 4 18 -13 10 -28 -13 -265 -9 -273 5 -4
6 -15 9 -24 5 -10 -3 -17 -1 -17 5 0 6 -10 11 -23 11 -12 0 -33 7 -45 16 -23
16 -81 11 -93 -8 -12 -19 -119 50 -119 77 0 6 -20 17 -45 24 -31 9 -45 19 -45
31 0 10 -7 24 -16 31 -15 12 -14 14 7 20 l24 7 -25 2 c-23 1 -23 2 -5 10 16 7
17 9 3 9 -9 1 -19 5 -23 11 -3 5 26 7 77 4 l83 -5 -3 103 c-4 119 14 242 63
433 34 131 112 374 124 387 3 4 27 -13 53 -38 39 -37 48 -53 53 -92 24 -166
96 -445 160 -617 20 -55 50 -136 65 -180 29 -83 77 -198 125 -300 16 -33 29
-62 30 -65 0 -3 18 -36 39 -75 22 -38 52 -95 69 -125 17 -30 36 -62 43 -70 6
-8 47 -78 89 -155 152 -277 384 -589 517 -695 123 -98 231 -123 331 -77 31 14
75 43 99 65 24 21 59 44 79 51 88 28 121 127 72 212 -14 24 -14 29 12 68 14
24 28 50 30 60 1 9 19 56 38 106 28 72 36 85 40 65 3 -15 5 -10 3 13 -1 20 2
37 6 37 4 0 8 -5 8 -12 0 -6 3 -8 7 -5 3 4 1 17 -6 30 -10 19 -8 30 13 70 l24
48 0 -35 c0 -26 -5 -37 -19 -41 -10 -4 -19 -14 -19 -23 0 -14 2 -15 9 -3 5 8
17 16 26 17 9 1 18 4 18 6 1 2 8 13 15 25 6 13 12 29 12 37 0 8 4 17 9 21 6 3
6 -8 0 -27 -20 -65 -20 -72 1 -29 14 30 19 55 15 75 -4 20 -3 26 3 18 7 -10
18 6 42 57 19 39 37 71 42 71 5 0 22 -7 37 -15 16 -8 31 -11 35 -8 3 4 6 2 6
-4 0 -5 19 -18 43 -28 23 -10 62 -26 86 -37 24 -11 50 -17 58 -14 8 3 12 2 9
-3 -8 -12 53 -33 68 -24 6 3 8 3 4 -2 -10 -10 149 -63 212 -70 33 -4 41 -3 30
4 -13 9 -12 11 5 12 11 1 29 1 40 0 11 0 14 2 8 5 -20 9 -15 24 7 24 11 0 20
7 20 15 0 22 37 18 43 -5 7 -26 27 -26 34 0 4 13 14 20 30 20 41 0 72 49 41
64 -10 5 -10 7 0 12 6 3 12 14 12 25 0 16 7 19 40 19 38 0 40 2 40 30 0 23 4
30 20 30 16 0 20 7 20 30 0 23 4 30 20 30 13 0 20 7 20 20 0 13 7 20 20 20 13
0 20 7 20 20 0 27 16 25 25 -2 l8 -23 4 23 c3 14 12 22 24 22 16 0 19 7 19 40
0 28 4 40 14 40 9 0 17 16 21 43 9 50 30 77 62 77 16 0 23 6 23 20 0 13 7 20
20 20 16 0 20 7 20 30 0 17 -4 30 -10 30 -5 0 -10 5 -10 10 0 6 14 10 30 10
28 0 30 2 30 40 0 38 2 40 30 40 17 0 30 5 30 10 0 6 -6 10 -12 10 -8 0 -9 3
-3 8 6 4 10 30 10 59 0 28 -3 46 -7 40 -4 -7 -6 9 -5 34 1 35 6 46 17 44 8 -1
16 -13 17 -26 l2 -24 -8 25 c-7 19 -9 20 -10 7 -1 -11 8 -30 19 -44 11 -14 20
-21 20 -15 0 6 -5 14 -10 17 -6 4 -7 11 -4 17 4 6 10 5 15 -3 7 -11 9 -11 9 2
0 9 -3 19 -7 23 -4 3 -8 14 -9 24 -7 45 -16 88 -22 97 -4 5 -8 17 -9 26 -1 9
-12 37 -23 63 -11 26 -20 53 -20 59 0 24 -63 176 -71 171 -5 -3 -6 1 -4 9 16
39 -209 462 -361 679 -30 43 -54 81 -54 86 0 5 21 27 48 48 155 126 796 717
916 845 110 116 160 187 216 304 94 197 124 338 96 458 -9 38 -23 80 -32 95
-8 15 -13 19 -9 8 50 -164 25 -272 -106 -446 -84 -111 -254 -280 -355 -352
-44 -31 -185 -121 -314 -198 -291 -175 -275 -167 -267 -146 4 9 1 16 -6 16 -9
0 -8 3 1 9 8 4 14 12 15 17 1 5 6 8 10 6 5 -1 6 1 3 6 -2 4 -1 14 5 22 7 13 9
13 9 0 1 -8 9 -1 18 16 50 91 68 130 66 142 -1 6 -2 15 -3 20 -1 4 -6 0 -11
-8 -5 -8 -10 -10 -10 -4 0 6 8 18 17 25 11 10 14 10 9 2 -4 -7 -4 -13 1 -13
12 0 49 94 84 215 61 214 97 354 91 359 -2 3 0 11 5 18 45 56 66 497 30 628
-10 36 -22 67 -27 68 -6 2 -8 8 -5 13 12 19 -84 166 -99 151 -4 -3 -4 0 -1 9
11 29 -143 155 -252 205 -120 54 -204 69 -393 69 -165 -1 -183 -2 -303 -33
-71 -18 -183 -56 -250 -83 -67 -27 -149 -57 -182 -66 -33 -9 -113 -42 -178
-74 -129 -64 -127 -63 -127 -50 0 9 93 72 197 135 91 54 292 147 413 191 116
42 147 60 85 50 -38 -7 -39 -6 -20 9 11 8 26 16 34 16 7 0 11 6 8 14 -4 11 9
19 51 31 75 21 80 23 59 24 -30 2 -147 -31 -142 -39 3 -5 -3 -6 -14 -3 -10 2
-67 -14 -127 -37 -155 -60 -145 -60 -173 -3 -62 129 -243 368 -357 473 -136
124 -281 196 -429 211 -49 5 -109 14 -133 19 -62 14 -93 12 -132 -9z m-212
-1168 c-10 -2 -26 -2 -35 0 -10 3 -2 5 17 5 19 0 27 -2 18 -5z m-1608 -59 c0
-2 -7 -4 -15 -4 -8 0 -15 4 -15 10 0 5 7 7 15 4 8 -4 15 -8 15 -10z m-33 -36
c-3 -8 -6 -5 -6 6 -1 11 2 17 5 13 3 -3 4 -12 1 -19z m3102 -100 c30 -60 57
-108 61 -108 3 0 20 20 37 44 21 29 49 52 87 71 52 26 56 30 56 63 l0 35 59
-6 c33 -4 92 -18 133 -32 40 -14 78 -26 83 -28 6 -1 13 -6 16 -11 4 -4 10 -3
13 3 4 6 2 12 -3 12 -26 3 -30 4 -36 11 -4 4 7 6 24 6 17 -1 28 -5 25 -10 -8
-12 10 -10 26 5 8 6 5 1 -7 -13 l-22 -26 20 -12 c19 -12 20 -11 14 7 -3 11 -1
23 6 27 8 4 9 3 5 -4 -5 -8 0 -12 13 -12 12 0 21 -4 21 -10 0 -5 -7 -10 -15
-10 -20 0 -19 -14 1 -31 51 -42 100 -154 125 -287 16 -87 6 -341 -19 -457 -26
-121 -93 -322 -154 -464 -81 -190 -200 -441 -209 -441 -4 0 -47 46 -95 103
-49 56 -130 148 -181 205 l-93 102 0 62 c0 71 -63 268 -130 410 -100 212 -249
456 -382 629 -32 42 -58 80 -58 85 0 19 249 163 320 185 14 4 65 7 114 6 l90
-2 55 -107z m-3162 20 c-3 -8 -6 -5 -6 6 -1 11 2 17 5 13 3 -3 4 -12 1 -19z
m3862 -31 c8 -11 6 -16 -12 -24 -19 -9 -67 -2 -67 10 0 7 35 4 40 -4 3 -4 12
-4 20 1 10 7 11 10 3 10 -7 0 -13 5 -13 10 0 14 16 12 29 -3z m25 -39 c-3 -4
0 -8 7 -8 7 0 10 -2 7 -5 -7 -7 -38 5 -38 14 0 4 7 8 15 8 8 0 12 -4 9 -9z
m-3904 -44 c0 -8 -19 -13 -24 -6 -3 5 1 9 9 9 8 0 15 -2 15 -3z m3923 -14 c4
0 5 5 2 10 -3 6 -1 10 5 10 7 0 9 -8 4 -22 -7 -23 -6 -23 15 -4 11 11 21 14
21 8 0 -7 -5 -12 -11 -12 -6 0 -8 -9 -4 -21 6 -18 1 -16 -29 11 -20 18 -36 36
-36 39 0 3 5 0 12 -7 7 -7 16 -12 21 -12z m68 -13 c-10 -9 -11 -8 -5 6 3 10 9
15 12 12 3 -3 0 -11 -7 -18z m-1583 -224 c140 -123 303 -348 430 -593 182
-351 175 -335 153 -352 -14 -11 -14 -11 -4 3 11 13 7 21 -21 48 -18 17 -39 31
-46 29 -7 -2 -15 4 -17 12 -4 12 -3 12 5 1 6 -8 12 -9 16 -3 3 6 -8 22 -26 36
-30 23 -34 24 -39 8 -5 -12 -8 -8 -14 16 -4 20 -12 32 -19 29 -6 -3 -20 1 -31
9 -10 8 -14 14 -9 14 6 0 16 -6 24 -12 8 -7 6 -3 -5 10 -10 12 -25 20 -32 18
-7 -3 -12 0 -10 6 3 16 -127 85 -218 114 -260 84 -491 72 -716 -37 -280 -136
-456 -392 -505 -736 -29 -204 1 -342 120 -552 151 -267 331 -412 643 -517 104
-35 110 -36 205 -30 187 13 345 72 493 183 70 53 103 85 197 190 11 12 16 28
12 34 -4 7 -3 9 2 6 6 -3 15 3 22 14 7 11 8 19 2 19 -5 0 -7 7 -3 16 4 12 8
13 13 3 6 -8 13 -2 24 20 9 17 14 37 10 43 -4 7 -3 8 4 4 14 -9 67 154 87 270
17 100 19 225 5 310 -24 138 -33 175 -42 162 -6 -9 -8 -7 -6 7 3 39 -2 56 -14
49 -8 -5 -9 -2 -5 10 8 19 -29 62 -37 43 -2 -7 -4 7 -2 29 2 31 -1 41 -11 37
-7 -3 -13 0 -13 6 0 6 4 11 10 11 5 0 0 17 -11 38 -18 31 -11 26 46 -32 82
-86 186 -241 227 -336 28 -68 29 -76 23 -163 -4 -51 -13 -135 -21 -187 -21
-133 -15 -126 -394 -546 -323 -360 -443 -479 -678 -672 -74 -61 -70 -62 -212
33 -131 87 -251 185 -337 273 -72 73 -73 74 -82 49 -5 -13 -15 -61 -22 -105
l-12 -80 33 -42 c18 -22 84 -87 148 -143 63 -56 133 -119 156 -139 l41 -36
-70 -71 c-38 -39 -75 -69 -81 -67 -6 2 -16 0 -22 -6 -11 -11 -35 -1 -27 11 2
5 -8 19 -23 32 -14 13 -20 16 -13 7 9 -13 10 -18 2 -18 -6 0 -16 10 -21 22 -5
13 -9 17 -9 11 -1 -22 -31 -14 -31 7 0 14 -7 20 -24 20 -20 0 -23 4 -19 28 3
23 2 24 -6 7 -5 -11 -10 -14 -10 -7 -1 6 -6 12 -12 12 -5 0 -7 -4 -4 -10 3 -5
1 -10 -4 -10 -22 0 -10 27 17 37 l27 12 -30 -5 c-16 -2 -24 -1 -17 2 25 12 11
19 -33 16 -41 -4 -46 -2 -56 25 -6 15 -21 51 -32 78 -26 65 -158 456 -190 563
-14 45 -21 82 -16 82 5 0 49 -21 97 -46 60 -31 106 -48 140 -52 48 -4 50 -3
56 25 7 31 -6 143 -22 184 -15 37 -99 137 -229 271 l-113 116 0 179 c0 276 43
519 117 668 81 161 288 397 580 661 121 109 451 374 466 374 5 0 39 -26 75
-57z m1676 12 c-4 -8 -8 -15 -10 -15 -2 0 -4 7 -4 15 0 8 4 15 10 15 5 0 7 -7
4 -15z m213 -557 c-3 -8 -6 -5 -6 6 -1 11 2 17 5 13 3 -3 4 -12 1 -19z m-40
-150 c-3 -8 -6 -5 -6 6 -1 11 2 17 5 13 3 -3 4 -12 1 -19z m-40 -50 c-3 -7 -5
-2 -5 12 0 14 2 19 5 13 2 -7 2 -19 0 -25z m-1462 -6 c-3 -3 -11 0 -18 7 -9
10 -8 11 6 5 10 -3 15 -9 12 -12z m-1563 -20 c-4 -11 -1 -13 9 -7 8 5 11 4 6
0 -4 -5 -22 -10 -40 -11 -18 -1 -26 0 -19 3 6 3 9 10 6 15 -4 7 -2 8 4 4 7 -4
12 -3 12 2 0 5 6 9 14 9 8 0 12 -6 8 -15z m1223 -64 c206 -53 379 -187 436
-338 21 -54 24 -74 11 -66 -5 3 -9 -1 -9 -8 0 -8 6 -12 12 -10 14 6 17 -10 16
-96 0 -45 3 -60 9 -50 5 8 10 24 10 34 0 11 3 17 6 13 8 -8 -5 -77 -14 -76
-27 4 -42 -3 -42 -21 0 -11 6 -20 14 -20 11 0 10 -8 -5 -37 -10 -21 -25 -41
-33 -45 -8 -5 -18 -23 -21 -40 -9 -38 -25 -70 -42 -80 -6 -5 -9 -17 -6 -27 3
-13 -3 -25 -21 -36 -14 -10 -26 -24 -26 -33 0 -8 -15 -33 -33 -56 -40 -50 -83
-118 -79 -128 1 -4 -10 -11 -26 -14 -45 -12 -83 -45 -77 -68 3 -12 2 -15 -1
-8 -9 19 -21 14 -28 -12 -4 -18 -12 -23 -33 -23 -16 1 -39 -5 -53 -13 -41 -22
-208 -25 -293 -5 -145 34 -306 133 -375 230 -16 22 -39 67 -52 100 -12 33 -26
67 -31 77 -39 77 -50 245 -24 370 22 107 94 246 163 317 175 179 390 235 647
169z m1776 -30 c-10 -11 -11 -9 -5 6 6 15 4 17 -6 11 -9 -6 -11 -4 -5 4 5 9
10 10 18 2 8 -8 7 -14 -2 -23z m-1124 -280 c-3 -8 -6 -5 -6 6 -1 11 2 17 5 13
3 -3 4 -12 1 -19z m-2337 -118 c0 -5 -5 -10 -11 -10 -5 0 -7 5 -4 10 3 6 8 10
11 10 2 0 4 -4 4 -10z m265 -268 c-5 -49 -9 -61 -19 -53 -7 6 -17 7 -21 3 -5
-4 -5 -2 -2 4 3 5 -5 23 -18 38 -30 35 -39 60 -31 92 8 30 65 96 77 88 5 -3
10 1 11 8 6 39 8 -127 3 -180z m2440 -43 c3 6 10 11 16 11 5 0 -3 -18 -17 -40
-31 -47 -43 -42 -51 21 l-6 44 26 -23 c16 -15 27 -20 32 -13z m255 -479 c50
-82 129 -257 165 -363 102 -306 20 -595 -201 -703 -52 -25 -152 -39 -169 -23
-3 4 5 51 19 105 73 291 117 595 123 861 3 112 9 201 13 198 4 -3 27 -36 50
-75z m-253 -212 c-2 -79 -15 -199 -27 -268 -24 -135 -100 -411 -128 -467 l-18
-34 -40 53 c-55 73 -107 100 -207 106 -64 4 -78 2 -72 -8 6 -9 4 -12 -7 -8 -8
4 -20 3 -27 -2 -9 -5 -4 -9 13 -12 15 -3 29 -1 32 3 10 16 32 9 29 -8 -2 -10
-4 -22 -4 -26 -1 -5 -5 -5 -11 -2 -5 3 -11 -3 -11 -14 -1 -12 -2 -27 -3 -33
-1 -17 -23 -31 -36 -23 -6 3 -10 1 -10 -4 0 -13 -41 -61 -52 -61 -4 0 -8 5 -8
11 0 5 5 7 10 4 6 -3 10 1 10 11 0 15 -2 15 -22 2 -13 -8 -27 -25 -33 -36 -13
-29 -23 -28 -18 1 2 12 -3 31 -12 42 -16 19 -16 19 -5 -3 7 -14 9 -36 5 -50
-4 -15 -10 -21 -12 -14 -4 10 -8 10 -20 0 -14 -11 -15 -10 -10 7 10 31 -4 44
-53 49 l-45 6 43 -11 c39 -9 43 -13 40 -37 -3 -26 -5 -27 -68 -29 -75 -2 -130
-12 -130 -24 0 -4 8 -10 18 -12 9 -2 0 -2 -20 0 -33 4 -38 2 -38 -16 0 -13 -9
-25 -22 -31 -13 -5 -17 -9 -10 -9 7 -1 27 -16 45 -34 43 -43 258 -214 327
-260 104 -69 96 -57 82 -125 -29 -140 -106 -353 -190 -523 l-57 -117 -56 -5
c-31 -3 -66 -11 -78 -18 -28 -17 -61 -79 -61 -114 0 -30 21 -75 44 -94 24 -20
20 -29 -31 -61 -52 -33 -98 -38 -142 -16 -89 47 -296 340 -416 590 -65 136
-142 317 -159 372 -6 19 22 43 211 187 120 92 253 194 297 227 43 33 81 58 84
56 3 -3 21 8 40 25 25 22 38 27 45 20 6 -6 15 -11 21 -11 5 0 2 6 -8 13 -17
12 4 35 235 255 140 132 362 354 493 491 150 157 243 248 249 242 6 -6 7 -69
4 -153z m-4039 50 c-6 -18 -28 -21 -28 -4 0 9 7 16 16 16 9 0 14 -5 12 -12z
m845 -665 c-7 -2 -19 -2 -25 0 -7 3 -2 5 12 5 14 0 19 -2 13 -5z m2280 -330
c-7 -2 -21 -2 -30 0 -10 3 -4 5 12 5 17 0 24 -2 18 -5z m-1513 -133 c0 -5 -9
-10 -21 -10 -11 0 -17 5 -14 10 3 6 13 10 21 10 8 0 14 -4 14 -10z m240 -100
c0 -5 -4 -10 -10 -10 -5 0 -10 5 -10 10 0 6 5 10 10 10 6 0 10 -4 10 -10z
m2740 -120 c0 -5 -4 -10 -10 -10 -5 0 -10 5 -10 10 0 6 5 10 10 10 6 0 10 -4
10 -10z m-363 -276 c-3 -3 -12 -4 -19 -1 -8 3 -5 6 6 6 11 1 17 -2 13 -5z
m-2507 -23 c0 -5 -7 -11 -14 -14 -10 -4 -13 -1 -9 9 6 15 23 19 23 5z m-83
-17 c-3 -3 -12 -4 -19 -1 -8 3 -5 6 6 6 11 1 17 -2 13 -5z"/>
<path d="M6602 6714 c-3 -55 -40 -137 -79 -180 -39 -44 -104 -74 -155 -74 -72
1 -167 26 -195 51 -42 39 -73 116 -73 184 -1 48 -3 56 -12 41 -6 -10 -13 -47
-16 -81 -4 -59 -6 -62 -36 -73 -83 -30 -119 -123 -77 -199 42 -73 127 -107
198 -78 44 19 89 58 109 98 33 62 37 22 31 -292 -3 -168 -11 -361 -18 -428
l-12 -122 71 -73 72 -72 0 46 c0 25 9 90 21 144 46 222 61 355 65 583 l5 224
53 58 c61 65 77 112 73 206 -3 76 -21 102 -25 37z m-562 -249 c0 -8 -7 -15
-15 -15 -16 0 -20 12 -8 23 11 12 23 8 23 -8z"/>
<path d="M4928 4083 c6 -2 18 -2 25 0 6 3 1 5 -13 5 -14 0 -19 -2 -12 -5z"/>
<path d="M5711 5344 c0 -11 3 -14 6 -6 3 7 2 16 -1 19 -3 4 -6 -2 -5 -13z"/>
<path d="M5255 3410 c-3 -5 -1 -10 5 -10 6 0 8 -6 4 -12 -4 -7 -3 -9 1 -5 12
10 15 37 5 37 -5 0 -12 -4 -15 -10z"/>
<path d="M4280 7401 c0 -7 -5 -9 -12 -5 -7 5 -8 3 -3 -5 5 -9 10 -10 18 -2 6
6 8 14 4 18 -4 3 -7 1 -7 -6z"/>
<path d="M3165 7311 c-3 -5 -2 -12 3 -15 5 -3 9 1 9 9 0 17 -3 19 -12 6z"/>
<path d="M7440 6976 c0 -8 10 -18 23 -20 12 -3 49 -10 82 -17 85 -16 205 -61
274 -103 55 -34 126 -102 163 -156 32 -47 18 -4 -18 56 -46 77 -76 108 -148
155 -74 49 -187 85 -294 94 -72 7 -82 6 -82 -9z"/>
<path d="M4160 6665 c0 -23 -60 -73 -102 -85 -22 -6 -39 -18 -43 -30 -4 -11
-11 -20 -16 -20 -13 0 -11 -34 3 -65 6 -14 20 -25 30 -25 11 0 28 -5 38 -10
16 -8 18 -8 14 5 -4 10 0 15 13 15 10 0 29 7 41 16 13 9 34 14 47 11 20 -3 23
-1 15 12 -6 12 -2 23 18 44 25 26 25 27 4 27 -15 0 -22 6 -22 20 0 15 7 20 26
20 20 0 25 4 20 16 -3 9 -6 18 -6 20 0 2 -9 4 -20 4 -13 0 -20 7 -20 20 0 13
-7 20 -20 20 -11 0 -20 -7 -20 -15z"/>
<path d="M7682 5379 c-67 -14 -118 -86 -108 -153 13 -78 79 -136 156 -136 46
0 104 25 94 41 -3 6 -12 3 -21 -8 -13 -16 -13 -16 -2 6 14 29 6 144 -10 149
-6 2 -9 8 -6 13 3 4 -2 20 -11 34 -9 14 -14 31 -11 39 7 17 -34 25 -81 15z"/>
<path d="M7780 5359 c0 -5 5 -7 10 -4 6 3 10 8 10 11 0 2 -4 4 -10 4 -5 0 -10
-5 -10 -11z"/>
<path d="M7845 5149 c-4 -6 -5 -12 -2 -15 2 -3 7 2 10 11 7 17 1 20 -8 4z"/>
<path d="M3152 4979 c-3 -23 -65 -69 -94 -69 -13 0 -32 -7 -42 -15 -24 -18
-58 -19 -102 -3 -28 10 -36 8 -65 -13 -19 -13 -38 -28 -44 -34 -5 -6 -26 -28
-45 -49 -23 -26 -28 -35 -14 -28 16 9 31 5 72 -15 96 -47 213 -27 276 48 42
50 68 113 63 157 -2 20 -4 30 -5 21z"/>
<path d="M2930 4900 c0 -5 5 -10 10 -10 6 0 10 5 10 10 0 6 -4 10 -10 10 -5 0
-10 -4 -10 -10z"/>
<path d="M2972 3780 c0 -14 2 -19 5 -12 2 6 2 18 0 25 -3 6 -5 1 -5 -13z"/>
<path d="M2992 3700 c0 -14 2 -19 5 -12 2 6 2 18 0 25 -3 6 -5 1 -5 -13z"/>
<path d="M2968 3583 c6 -2 18 -2 25 0 6 3 1 5 -13 5 -14 0 -19 -2 -12 -5z"/>
<path d="M7372 3385 c0 -16 2 -22 5 -12 2 9 2 23 0 30 -3 6 -5 -1 -5 -18z"/>
<path d="M3600 3300 c0 -5 9 -10 20 -10 11 0 20 5 20 10 0 6 -9 10 -20 10 -11
0 -20 -4 -20 -10z"/>
<path d="M4216 3155 c8 -37 14 -45 14 -19 0 10 -5 26 -10 34 -8 11 -9 7 -4
-15z"/>
<path d="M4245 3109 c-4 -6 -5 -12 -2 -15 2 -3 7 2 10 11 7 17 1 20 -8 4z"/>
<path d="M4056 2711 c-4 -7 -5 -15 -2 -18 9 -9 19 4 14 18 -4 11 -6 11 -12 0z"/>
<path d="M4080 2708 c0 -11 12 -10 30 2 12 7 10 9 -8 7 -12 0 -22 -5 -22 -9z"/>
<path d="M6558 2683 c7 -3 16 -2 19 1 4 3 -2 6 -13 5 -11 0 -14 -3 -6 -6z"/>
<path d="M6588 2663 c7 -3 16 -2 19 1 4 3 -2 6 -13 5 -11 0 -14 -3 -6 -6z"/>
<path d="M5696 2455 c-9 -26 -7 -32 5 -12 6 10 9 21 6 23 -2 3 -7 -2 -11 -11z"/>
</g>
</svg>
